<svg id="btn3" width="39" height="32" viewBox="0 0 39 32" fill="none" xmlns="http://www.w3.org/2000/svg">
<path d="M29.3449 3.27197C28.5481 3.27197 27.7693 3.50823 27.1068 3.95087C26.4444 4.39351 25.9281 5.02265 25.6232 5.75873C25.3183 6.49481 25.2385 7.30478 25.3939 8.0862C25.5494 8.86762 25.933 9.5854 26.4964 10.1488C27.0598 10.7121 27.7776 11.0958 28.559 11.2512C29.3404 11.4067 30.1504 11.3269 30.8864 11.022C31.6225 10.7171 32.2517 10.2008 32.6943 9.53833C33.1369 8.87588 33.3732 8.09704 33.3732 7.30031C33.3705 6.23276 32.9452 5.20971 32.1903 4.45484C31.4355 3.69996 30.4124 3.27468 29.3449 3.27197V3.27197Z" stroke="currentColor" stroke-width="1.4" stroke-miterlimit="10"/>
<path d="M14.7533 1C13.6379 1 12.5475 1.33076 11.6201 1.95046C10.6926 2.57015 9.9698 3.45095 9.54294 4.48146C9.11609 5.51198 9.00441 6.64593 9.22201 7.73991C9.43962 8.8339 9.97675 9.8388 10.7655 10.6275C11.5542 11.4162 12.5591 11.9534 13.6531 12.171C14.7471 12.3886 15.881 12.2769 16.9115 11.85C17.942 11.4232 18.8228 10.7003 19.4425 9.7729C20.0622 8.84546 20.393 7.75509 20.393 6.63967C20.3899 5.14489 19.7947 3.71221 18.7377 2.65524C17.6808 1.59827 16.2481 1.0031 14.7533 1V1Z" stroke="currentColor" stroke-width="1.6" stroke-miterlimit="10"/>
<path d="M28.3649 28.1262L27.4757 20.9572L23.6994 18.5798L21.3746 17.9162C21.3746 17.9162 21.6149 17.7331 21.7423 17.6437C21.8165 17.592 21.8922 17.5431 21.9694 17.4972L20.0973 16.3122C20.0973 16.3122 20.4078 16.0749 20.5719 15.9606C22.8208 14.4974 25.4567 13.7417 28.1393 13.7912C30.8222 13.7411 33.4586 14.4962 35.7082 15.9591C36.6145 16.5069 37.3731 17.268 37.9177 18.1762C38.4623 19.0844 38.7765 20.1121 38.8327 21.1696V28.1262H28.3649Z" fill="currentColor"/>
<path d="M14.8194 16.1627C18.2975 16.0869 21.7359 16.9136 24.7994 18.5622C27.2896 20.027 28.6373 21.9181 28.6373 23.8356V31.0002H1V23.84C1 21.9167 2.35206 20.0241 4.8379 18.5666C7.90144 16.9162 11.3404 16.088 14.8194 16.1627V16.1627Z" stroke="currentColor" stroke-width="1.6" stroke-miterlimit="10"/>
<path d="M24.5944 17.1018C24.5944 17.1018 23.6495 16.6887 22.8497 16.3533C22.2242 16.0911 20.777 15.719 20.777 15.719L23.6627 14.2542L27.1168 16.1585L24.5944 17.1018Z" fill="#1F2124"/>
<path d="M31.8571 25.5906H29.8092V28.5203H31.8571V25.5906Z" fill="#1F2124"/>
</svg>
