<svg id="btn4" width="35" height="36" viewBox="0 0 35 36" fill="none" xmlns="http://www.w3.org/2000/svg">
<path d="M31.4688 3.7804H27.7498V1.71511C27.7498 1.48977 27.7054 1.26664 27.6191 1.05847C27.5328 0.850301 27.4064 0.661172 27.247 0.501892C27.0876 0.342613 26.8983 0.216306 26.6901 0.130188C26.4819 0.0440713 26.2587 -0.000167437 26.0334 4.76208e-07H25.7612C25.3063 4.76208e-07 24.87 0.180699 24.5484 0.502345C24.2267 0.82399 24.046 1.26023 24.046 1.71511V3.7804H10.9131V1.71511C10.9131 1.26023 10.7324 0.82399 10.4107 0.502345C10.0891 0.180699 9.65282 4.76208e-07 9.19795 4.76208e-07H8.92573C8.70039 -0.000167437 8.47723 0.0440713 8.26899 0.130188C8.06076 0.216306 7.87153 0.342613 7.71214 0.501892C7.55274 0.661172 7.42629 0.850301 7.34002 1.05847C7.25374 1.26664 7.20934 1.48977 7.20934 1.71511V3.7804H3.53118C2.59497 3.78141 1.69739 4.15377 1.03538 4.81578C0.373375 5.47779 0.00101487 6.37537 0 7.31158V32.0286C0.00135228 32.9647 0.373821 33.8621 1.03575 34.524C1.69769 35.186 2.59507 35.5584 3.53118 35.5598H31.4688C32.4049 35.5584 33.3023 35.186 33.9642 34.524C34.6262 33.8621 34.9986 32.9647 35 32.0286V7.31158C34.9986 6.37547 34.6262 5.47808 33.9642 4.81615C33.3023 4.15422 32.4049 3.78175 31.4688 3.7804ZM31.0113 31.5672H3.99127V12.3266H31.0113V31.5672Z" fill="currentColor"/>
</svg>
