<?xml version="1.0" standalone="no"?>
<!DOCTYPE svg PUBLIC "-//W3C//DTD SVG 20010904//EN"
 "http://www.w3.org/TR/2001/REC-SVG-20010904/DTD/svg10.dtd">
<svg version="1.0" xmlns="http://www.w3.org/2000/svg"
 width="650.000000pt" height="598.000000pt" viewBox="0 0 650.000000 598.000000"
 preserveAspectRatio="xMidYMid meet">

<g transform="translate(0.000000,598.000000) scale(0.100000,-0.100000)"
fill="#000000" stroke="none">
<path d="M2950 5643 c0 -6 6 -18 13 -25 6 -7 17 -20 24 -28 15 -20 113 -396
113 -436 0 -48 -107 -363 -136 -401 -14 -19 -24 -37 -21 -39 3 -3 35 -7 71 -8
48 -3 66 0 66 9 0 7 -7 15 -15 19 -29 11 -36 53 -20 124 27 115 67 235 75 226
11 -13 70 -264 70 -301 0 -17 -7 -36 -15 -43 -8 -7 -15 -19 -15 -28 0 -11 9
-13 40 -9 22 3 56 1 77 -3 53 -12 64 3 29 39 -32 33 -58 112 -111 336 l-37
156 27 87 c49 159 90 264 113 289 37 40 29 49 -43 48 -54 0 -65 -3 -65 -17 0
-9 8 -21 18 -27 26 -15 20 -79 -17 -201 -18 -58 -37 -109 -41 -114 -5 -5 -13
9 -19 30 -50 192 -57 249 -36 288 8 15 15 31 15 35 0 3 -36 6 -80 6 -55 0 -80
-4 -80 -12z"/>
<path d="M3340 5635 c0 -5 12 -19 28 -31 l27 -22 -3 -403 c-2 -382 -3 -405
-22 -437 -23 -39 -18 -57 12 -41 15 8 32 8 66 -1 59 -15 76 0 39 34 -14 13
-29 35 -32 48 -4 14 -5 200 -3 415 3 356 5 393 21 410 31 35 21 42 -58 40 -41
-1 -75 -6 -75 -12z"/>
<path d="M3520 5636 c0 -6 12 -23 28 -39 l27 -28 -3 -397 c-3 -374 -4 -399
-23 -431 -11 -18 -18 -35 -16 -38 3 -2 37 -5 76 -7 78 -3 92 9 49 44 l-23 18
0 415 c0 381 1 416 18 434 30 34 21 41 -58 39 -41 0 -75 -5 -75 -10z"/>
<path d="M2071 5396 c-13 -14 -36 -30 -51 -36 -36 -15 -29 -40 11 -40 38 0 48
-14 232 -335 189 -331 197 -346 197 -388 0 -46 6 -49 47 -21 20 13 44 24 53
24 27 0 43 25 27 39 -8 6 -16 8 -20 5 -11 -11 -47 17 -76 59 -29 42 -150 251
-298 512 -43 75 -73 141 -72 155 3 59 -12 66 -50 26z"/>
<path d="M1920 5314 c-19 -13 -41 -24 -48 -24 -23 0 -8 -35 16 -38 13 -2 32
-17 42 -35 20 -32 77 -253 68 -262 -6 -6 -148 137 -184 186 -18 24 -24 42 -20
61 7 37 -10 45 -39 18 -13 -12 -38 -27 -57 -33 -19 -7 -35 -15 -36 -19 -5 -20
0 -26 26 -33 26 -6 322 -288 343 -327 18 -32 79 -337 79 -393 0 -31 3 -55 8
-53 108 48 132 69 85 76 -30 4 -59 40 -77 95 -13 40 -56 220 -56 236 0 11 181
-175 206 -211 19 -27 25 -45 20 -62 -9 -36 9 -40 51 -11 21 14 41 25 45 25 4
0 18 4 32 10 31 12 25 40 -9 40 -32 0 -98 56 -247 206 -139 142 -130 126 -174
329 -22 104 -29 176 -22 219 4 28 -13 28 -52 0z"/>
<path d="M4557 5318 c-2 -7 1 -21 7 -31 19 -30 -12 -89 -194 -377 -184 -292
-202 -317 -237 -331 -35 -13 -28 -28 25 -50 26 -11 51 -27 55 -35 15 -27 28
-3 22 44 -6 47 -6 48 152 297 222 349 233 366 270 387 40 24 42 35 4 43 -15 3
-41 19 -56 35 -32 33 -41 36 -48 18z"/>
<path d="M999 4488 c-12 -24 -30 -53 -41 -64 -24 -27 -7 -42 27 -24 36 19 74
-1 147 -79 77 -82 133 -151 121 -151 -29 0 -286 70 -307 83 -13 9 -26 26 -28
38 -5 38 -25 32 -42 -13 -10 -23 -31 -57 -47 -75 -16 -19 -29 -38 -29 -43 0
-16 25 -17 47 -2 27 17 97 6 350 -54 l153 -36 68 -82 c94 -111 172 -219 172
-238 0 -26 11 -48 24 -47 9 0 47 67 75 132 2 5 -17 6 -42 2 -42 -6 -48 -4 -84
29 -65 59 -167 186 -148 186 33 0 215 -50 253 -69 25 -13 42 -29 46 -46 9 -37
33 -31 45 12 6 20 24 53 40 74 24 29 28 39 17 48 -9 8 -21 7 -43 -1 -26 -10
-61 -4 -239 36 -115 26 -217 53 -226 59 -9 7 -65 70 -123 141 -97 117 -123
156 -139 209 -9 28 -24 20 -47 -25z"/>
<path d="M5476 4398 c-20 -76 -3 -64 -331 -228 -279 -140 -314 -155 -357 -153
-52 1 -56 -2 -32 -28 8 -9 23 -39 33 -65 16 -47 45 -67 47 -34 2 34 5 40 27
61 12 11 155 87 317 167 260 128 301 146 343 145 26 -1 47 2 47 5 0 4 -16 32
-35 62 -19 30 -35 60 -35 67 0 17 -20 17 -24 1z"/>
<path d="M5566 4218 c-3 -7 -7 -25 -10 -40 -6 -25 -39 -44 -316 -183 -276
-138 -316 -155 -360 -155 -28 0 -50 -2 -50 -5 0 -2 11 -21 25 -41 14 -20 25
-44 25 -53 0 -22 26 -58 35 -49 4 3 8 18 9 32 2 15 12 36 22 47 16 17 551 288
632 320 15 6 31 5 44 -2 40 -21 42 6 4 61 -20 29 -36 58 -36 66 0 17 -19 18
-24 2z"/>
<path d="M605 3358 c-2 -7 -6 -43 -8 -80 -4 -51 -1 -68 8 -68 7 0 15 7 19 15
11 28 51 35 108 19 79 -23 240 -96 231 -104 -13 -12 -245 -60 -290 -60 -32 0
-45 5 -53 20 -23 42 -37 23 -42 -57 -3 -43 -9 -86 -13 -95 -10 -26 31 -24 45
1 5 11 36 28 72 40 79 26 371 91 408 91 30 0 219 -81 307 -131 71 -41 87 -64
66 -95 -28 -44 -70 -47 -463 -40 -339 7 -367 9 -396 27 -18 11 -35 16 -37 12
-3 -5 -1 -28 3 -53 5 -25 6 -55 3 -67 -7 -32 17 -30 46 3 l22 25 394 -3 c357
-3 395 -5 412 -20 36 -33 48 -23 49 39 1 88 13 223 19 233 13 21 -27 22 -41 1
-24 -34 -75 -27 -198 27 -59 26 -108 52 -107 57 1 13 192 54 252 55 34 0 51
-5 64 -20 10 -11 23 -19 28 -17 10 3 17 176 7 182 -4 3 -19 -6 -34 -20 -30
-28 -35 -29 -279 -84 l-178 -41 -127 56 c-176 78 -218 100 -254 134 -35 34
-37 35 -43 18z"/>
<path d="M5891 3231 c-20 -37 -62 -41 -436 -41 -347 0 -363 1 -388 20 -14 11
-28 20 -30 20 -3 0 -5 -36 -4 -80 1 -44 6 -80 10 -80 5 0 22 14 37 30 l28 30
374 0 c304 -1 378 -3 398 -15 14 -8 30 -14 35 -15 6 0 11 32 11 75 1 57 -2 75
-12 75 -7 0 -18 -9 -23 -19z"/>
<path d="M5888 3039 l-28 -31 -367 4 c-361 3 -369 3 -404 26 -20 12 -38 22
-40 22 -2 0 -4 -38 -5 -85 0 -47 3 -85 8 -85 5 0 20 12 33 28 l23 27 382 -2
c372 -1 383 -2 404 -22 39 -37 45 -28 41 61 -3 46 -8 84 -12 85 -5 2 -21 -11
-35 -28z"/>
<path d="M3246 3044 c-30 -30 -13 -74 29 -74 42 0 59 44 29 74 -8 9 -22 16
-29 16 -7 0 -21 -7 -29 -16z"/>
<path d="M5878 2839 l-27 -29 -133 1 c-73 0 -239 4 -368 7 -201 6 -240 10
-263 25 -14 9 -30 17 -34 17 -6 0 -10 -127 -4 -165 0 -5 14 5 30 22 39 43 71
45 467 36 295 -7 334 -10 351 -25 35 -32 41 -22 39 62 -1 90 -11 99 -58 49z"/>
<path d="M1511 2448 c-5 -13 -18 -31 -29 -41 -11 -10 -170 -90 -353 -177 -247
-118 -344 -160 -371 -160 -21 0 -38 -3 -38 -6 0 -3 11 -20 25 -38 14 -18 25
-38 25 -44 0 -7 7 -12 15 -12 8 0 15 9 15 19 0 32 49 60 375 216 224 107 323
149 358 153 45 4 58 14 37 27 -5 3 -14 24 -20 45 -12 45 -26 51 -39 18z"/>
<path d="M1570 2321 c0 -34 -33 -53 -460 -257 -175 -83 -257 -117 -285 -118
-44 -2 -47 -12 -14 -54 10 -14 19 -31 19 -38 0 -20 20 -17 27 4 3 9 15 27 25
39 28 31 672 335 713 337 43 1 52 11 33 33 -9 10 -18 29 -20 43 -4 31 -38 41
-38 11z"/>
<path d="M1631 2197 c-6 -14 -25 -36 -43 -50 -57 -44 -665 -327 -702 -327 -45
0 -49 -8 -21 -45 14 -17 25 -39 25 -48 0 -25 27 -9 38 22 12 33 41 49 417 226
166 79 286 130 312 133 45 5 51 10 32 29 -6 6 -14 26 -18 44 -8 41 -28 48 -40
16z"/>
<path d="M4830 2177 c0 -13 -13 -44 -30 -68 -29 -44 -27 -75 5 -49 33 28 104
5 375 -119 339 -155 372 -172 384 -196 24 -46 37 -41 56 20 7 22 18 50 26 62
19 30 2 38 -36 18 -18 -9 -40 -13 -53 -10 -23 7 -364 161 -553 250 -78 37
-117 61 -133 83 -27 38 -41 41 -41 9z"/>
<path d="M1435 1859 c-415 -180 -438 -189 -468 -189 -35 0 -39 -10 -17 -38 11
-13 20 -31 20 -38 0 -23 20 -16 30 10 20 55 85 92 385 221 206 88 225 96 225
90 0 -7 -422 -331 -475 -364 -27 -17 -62 -31 -77 -31 -15 0 -28 -3 -28 -7 0
-13 45 -93 52 -93 4 0 14 12 23 28 9 15 48 52 87 82 140 109 603 472 607 476
15 15 -54 -13 -364 -147z"/>
<path d="M4756 1948 c22 -24 156 -163 297 -310 153 -158 264 -281 272 -303 15
-34 35 -47 35 -22 0 7 13 28 30 47 38 45 37 54 -2 46 -57 -11 -103 23 -312
234 -110 110 -197 203 -193 206 7 7 485 -236 539 -275 21 -14 42 -38 47 -53
11 -32 27 -36 35 -10 3 10 22 34 42 55 38 39 37 41 -26 50 -19 3 -205 89 -412
191 -207 102 -380 186 -384 186 -5 0 10 -19 32 -42z"/>
<path d="M2056 1583 c6 -57 13 -44 -240 -417 -138 -203 -175 -251 -202 -262
-42 -18 -43 -28 -3 -45 18 -7 45 -24 61 -37 36 -30 55 -19 37 22 -17 37 -11
49 212 376 157 230 199 285 226 296 42 18 42 29 -1 49 -19 9 -42 28 -51 41
-27 42 -45 31 -39 -23z"/>
<path d="M2204 1468 c1 -59 2 -58 -255 -434 -153 -222 -160 -231 -189 -236
-40 -5 -33 -26 19 -52 27 -14 54 -33 59 -42 7 -13 10 -13 21 -1 9 11 9 21 0
40 -16 34 -6 52 175 317 219 320 234 341 267 353 30 12 40 37 14 37 -8 0 -32
16 -54 35 -21 19 -43 35 -48 35 -5 0 -9 -24 -9 -52z"/>
<path d="M4140 1468 c0 -8 50 -160 111 -339 151 -444 152 -446 144 -485 -7
-41 2 -42 51 -9 21 14 48 28 61 31 33 9 29 34 -6 34 -42 0 -77 33 -111 104
-33 70 -172 475 -167 489 3 10 332 -349 390 -426 32 -43 38 -56 32 -84 -7 -40
2 -41 53 -10 20 13 52 29 70 36 39 16 37 32 -5 43 -22 6 -66 45 -145 130 -248
267 -462 493 -470 496 -4 2 -8 -3 -8 -10z"/>
<path d="M2379 1274 c-53 -65 -175 -219 -272 -341 -98 -123 -183 -223 -191
-223 -7 0 -19 -6 -25 -14 -10 -11 -8 -16 8 -21 11 -3 35 -17 55 -30 39 -26 51
-20 36 19 -20 55 14 113 235 391 125 158 155 190 136 143 -5 -12 -47 -129 -92
-258 -93 -267 -119 -326 -154 -342 -26 -12 -34 -38 -12 -38 7 0 34 -13 59 -29
25 -16 49 -27 52 -24 3 3 3 22 0 42 -4 27 8 72 46 181 103 293 220 645 217
654 -2 5 -46 -44 -98 -110z"/>
<path d="M3000 1228 c0 -7 9 -21 20 -31 17 -14 20 -29 20 -89 0 -74 -56 -657
-66 -693 -4 -11 -16 -30 -27 -42 -11 -13 -19 -25 -16 -27 4 -3 159 -15 159
-11 0 0 -11 16 -25 35 -31 42 -31 51 -5 318 41 411 49 465 70 494 28 38 26 43
-22 44 -24 0 -58 4 -75 8 -26 7 -33 5 -33 -6z"/>
<path d="M3305 1219 c-6 -28 -20 -117 -80 -528 -27 -189 -50 -312 -60 -327
-24 -36 -19 -41 45 -41 46 -1 60 3 60 13 0 8 -6 17 -14 20 -45 17 -46 134 -1
434 32 211 40 250 48 230 4 -8 27 -132 53 -275 48 -270 58 -375 36 -383 -6 -2
-12 -11 -12 -20 0 -14 11 -17 70 -17 77 0 84 7 50 53 -15 20 -33 94 -65 262
-72 381 -114 592 -119 598 -3 2 -8 -6 -11 -19z"/>
</g>
</svg>
