<svg id="dynamics" width="24" height="24" viewBox="0 0 24 24" fill="none" xmlns="http://www.w3.org/2000/svg">
<path d="M2.28016 15.3059C1.8968 15.7034 1.90831 16.3365 2.30586 16.7198C2.70342 17.1032 3.33648 17.0917 3.71984 16.6941L2.28016 15.3059ZM21 8H22C22 7.44772 21.5523 7 21 7V8ZM17 7C16.4477 7 16 7.44772 16 8C16 8.55228 16.4477 9 17 9V7ZM20 12C20 12.5523 20.4477 13 21 13C21.5523 13 22 12.5523 22 12H20ZM12.9436 15.0892L13.1147 14.104L12.9436 15.0892ZM13.6278 15.0892L13.7988 16.0745L13.6278 15.0892ZM7.80078 11.5774L7.97182 12.5627L7.80078 11.5774ZM8.48494 11.5774L8.3139 12.5627L8.48494 11.5774ZM3.71984 16.6941L6.29127 14.0275L4.85158 12.6392L2.28016 15.3059L3.71984 16.6941ZM16.577 14.0275L21.7198 8.69414L20.2802 7.30586L15.1373 12.6392L16.577 14.0275ZM21 7H17V9H21V7ZM20 8V12H22V8H20ZM9.99444 14.0275C10.5075 14.5595 10.9469 15.0172 11.3427 15.3478C11.7523 15.69 12.2056 15.9761 12.7726 16.0745L13.1147 14.104C13.0377 14.0906 12.9048 14.0468 12.625 13.813C12.3313 13.5677 11.9781 13.2033 11.4341 12.6392L9.99444 14.0275ZM15.1373 12.6392C14.5934 13.2033 14.2401 13.5677 13.9465 13.813C13.6666 14.0468 13.5337 14.0906 13.4568 14.104L13.7988 16.0745C14.3658 15.9761 14.8191 15.69 15.2287 15.3478C15.6245 15.0172 16.064 14.5595 16.577 14.0275L15.1373 12.6392ZM12.7726 16.0745C13.1121 16.1335 13.4593 16.1335 13.7988 16.0745L13.4568 14.104C13.3436 14.1236 13.2279 14.1236 13.1147 14.104L12.7726 16.0745ZM6.29127 14.0275C6.8352 13.4634 7.18847 13.099 7.48211 12.8537C7.76198 12.6199 7.89486 12.576 7.97182 12.5627L7.62974 10.5922C7.06276 10.6906 6.60943 10.9767 6.19985 11.3188C5.80403 11.6495 5.36459 12.1072 4.85158 12.6392L6.29127 14.0275ZM11.4341 12.6392C10.9211 12.1072 10.4817 11.6495 10.0859 11.3188C9.67628 10.9767 9.22296 10.6906 8.65598 10.5922L8.3139 12.5627C8.39085 12.576 8.52374 12.6199 8.80361 12.8537C9.09724 13.099 9.45051 13.4634 9.99444 14.0275L11.4341 12.6392ZM7.97182 12.5627C8.085 12.543 8.20072 12.543 8.3139 12.5627L8.65598 10.5922C8.31644 10.5332 7.96928 10.5332 7.62974 10.5922L7.97182 12.5627Z" fill="currentColor"/>
</svg>
