<svg id="gallery" width="24" height="23" viewBox="0 0 24 23" fill="none" xmlns="http://www.w3.org/2000/svg">
<path d="M18 1H6C4.11438 1 3.17157 1 2.58579 1.58579C2 2.17157 2 3.11438 2 5V17C2 18.8856 2 19.8284 2.58579 20.4142C3.17157 21 4.11438 21 6 21H18C19.8856 21 20.8284 21 21.4142 20.4142C22 19.8284 22 18.8856 22 17V5C22 3.11438 22 2.17157 21.4142 1.58579C20.8284 1 19.8856 1 18 1Z" stroke="currentColor" stroke-width="2"/>
<path d="M12 14.8461L9.82673 12.7289C8.49164 11.4281 7.82409 10.7778 6.99782 10.778C6.17156 10.7781 5.50431 11.4288 4.16982 12.7301L1.99994 14.8461M22 11.3297L18.8552 8.27418C17.5087 6.96587 16.8354 6.31172 16.0045 6.31625C15.1737 6.32077 14.5077 6.98222 13.1759 8.30511L9.67621 11.7814" stroke="currentColor" stroke-width="2" stroke-linecap="round" stroke-linejoin="round"/>
</svg>
