<svg id="information" width="22" height="21" viewBox="0 0 22 21" fill="none" xmlns="http://www.w3.org/2000/svg">
<path d="M4.48261 1.71436C2.77369 3.36932 1.71429 5.67025 1.71429 8.21434C1.71429 10.7116 2.73501 12.9745 4.38881 14.6222" stroke="currentColor" stroke-width="2" stroke-linecap="round"/>
<path d="M17.5174 14.7144C19.2263 13.0594 20.2857 10.7585 20.2857 8.21437C20.2857 5.71716 19.265 3.45423 17.6112 1.80653" stroke="currentColor" stroke-width="2" stroke-linecap="round"/>
<path d="M6.92661 4.15186C5.85853 5.18621 5.19641 6.62429 5.19641 8.21434C5.19641 9.7751 5.83436 11.1894 6.86798 12.2192" stroke="currentColor" stroke-width="2" stroke-linecap="round"/>
<path d="M15.0734 12.2769C16.1415 11.2425 16.8036 9.80442 16.8036 8.21437C16.8036 6.65361 16.1656 5.23928 15.132 4.20946" stroke="currentColor" stroke-width="2" stroke-linecap="round"/>
<path d="M12.3214 8.21444C12.3214 8.90574 11.7463 9.49577 11 9.49577C10.2537 9.49577 9.67859 8.90574 9.67859 8.21444C9.67859 7.52313 10.2537 6.93311 11 6.93311C11.7463 6.93311 12.3214 7.52313 12.3214 8.21444Z" fill="white" stroke="currentColor" stroke-width="2"/>
<path d="M11 10.0715V19.3572" stroke="currentColor" stroke-width="2" stroke-linecap="round" stroke-linejoin="round"/>
</svg>
