<svg id="other" width="20" height="20" viewBox="0 0 20 20" fill="none" xmlns="http://www.w3.org/2000/svg">
<path d="M18.6691 17.018C18.8272 17.1208 18.9136 17.1993 18.9597 17.25C18.9136 17.3007 18.8272 17.3792 18.6691 17.482C18.2852 17.7316 17.6635 17.9945 16.8059 18.2303C15.1049 18.6981 12.6983 19 10 19C7.30174 19 4.89512 18.6981 3.19409 18.2303C2.33647 17.9945 1.71481 17.7316 1.33094 17.482C1.17277 17.3792 1.08638 17.3007 1.0403 17.25C1.08638 17.1993 1.17277 17.1208 1.33094 17.018C1.71481 16.7684 2.33647 16.5055 3.19409 16.2697C4.89512 15.8019 7.30174 15.5 10 15.5C12.6983 15.5 15.1049 15.8019 16.8059 16.2697C17.6635 16.5055 18.2852 16.7684 18.6691 17.018Z" stroke="currentColor" stroke-width="2"/>
<path d="M18.6691 9.76795C18.8272 9.87079 18.9136 9.94932 18.9597 10C18.9136 10.0507 18.8272 10.1292 18.6691 10.232C18.2852 10.4816 17.6635 10.7445 16.8059 10.9803C15.1049 11.4481 12.6983 11.75 10 11.75C7.30174 11.75 4.89512 11.4481 3.19409 10.9803C2.33647 10.7445 1.71481 10.4816 1.33094 10.232C1.17277 10.1292 1.08638 10.0507 1.0403 10C1.08638 9.94932 1.17277 9.87079 1.33094 9.76795C1.71481 9.51837 2.33647 9.25551 3.19409 9.01966C4.89512 8.55188 7.30174 8.25 10 8.25C12.6983 8.25 15.1049 8.55188 16.8059 9.01966C17.6635 9.25551 18.2852 9.51837 18.6691 9.76795Z" stroke="currentColor" stroke-width="2"/>
<path d="M18.6691 2.51795C18.8272 2.62079 18.9136 2.69932 18.9597 2.75C18.9136 2.80069 18.8272 2.87921 18.6691 2.98205C18.2852 3.23163 17.6635 3.49449 16.8059 3.73034C15.1049 4.19812 12.6983 4.5 10 4.5C7.30174 4.5 4.89512 4.19812 3.19409 3.73034C2.33647 3.49449 1.71481 3.23163 1.33094 2.98205C1.17277 2.87921 1.08638 2.80068 1.0403 2.75C1.08638 2.69932 1.17277 2.62079 1.33094 2.51795C1.71481 2.26837 2.33647 2.00551 3.19409 1.76966C4.89512 1.30188 7.30174 1 10 1C12.6983 1 15.1049 1.30188 16.8059 1.76966C17.6635 2.00551 18.2852 2.26837 18.6691 2.51795Z" stroke="currentColor" stroke-width="2"/>
</svg>
