<svg id="shop" width="20" height="19" viewBox="0 0 20 19" fill="none" xmlns="http://www.w3.org/2000/svg">
<path d="M17.5 14.0001H7.19456C6.38525 14.0001 5.9806 14.0001 5.70084 13.763C5.42107 13.526 5.35462 13.1268 5.22171 12.3285L3.77829 3.65861C3.64538 2.8603 3.57893 2.46114 3.29916 2.2241C3.0194 1.98707 2.61475 1.98707 1.80544 1.98707H1M3.85715 4.00006L15.1648 3.99321C16.8691 3.99218 17.7213 3.99167 18.2672 4.42352C18.4995 4.60729 18.6881 4.84036 18.8194 5.10591C19.1278 5.72993 18.9495 6.56321 18.5928 8.22976V8.22976C18.3503 9.36299 18.2291 9.9296 17.8837 10.3218C17.7346 10.4911 17.5579 10.634 17.3611 10.7444C16.9053 11.0001 16.3259 11.0001 15.167 11.0001H5.00054" stroke="currentColor" stroke-width="2" stroke-linecap="round" stroke-linejoin="round"/>
<path d="M18 17.5C18 18.3284 17.3284 19 16.5 19C15.6716 19 15 18.3284 15 17.5C15 16.6716 15.6716 16 16.5 16C17.3284 16 18 16.6716 18 17.5Z" fill="currentColor"/>
<path d="M8.5 17.5C8.5 18.3284 7.82843 19 7 19C6.17157 19 5.5 18.3284 5.5 17.5C5.5 16.6716 6.17157 16 7 16C7.82843 16 8.5 16.6716 8.5 17.5Z" fill="currentColor"/>
</svg>
