<svg id="theme-light" width="16" height="16" viewBox="0 0 16 16" fill="none" xmlns="http://www.w3.org/2000/svg">
<path d="M3.33331 7.99996C3.33331 7.82315 3.26307 7.65358 3.13805 7.52856C3.01303 7.40354 2.84346 7.3333 2.66665 7.3333H1.99998C1.82317 7.3333 1.6536 7.40354 1.52858 7.52856C1.40355 7.65358 1.33331 7.82315 1.33331 7.99996C1.33331 8.17677 1.40355 8.34634 1.52858 8.47137C1.6536 8.59639 1.82317 8.66663 1.99998 8.66663H2.66665C2.84346 8.66663 3.01303 8.59639 3.13805 8.47137C3.26307 8.34634 3.33331 8.17677 3.33331 7.99996ZM3.75998 11.3333L3.28665 11.8066C3.16248 11.9315 3.09278 12.1005 3.09278 12.2766C3.09278 12.4528 3.16248 12.6217 3.28665 12.7466C3.41155 12.8708 3.58052 12.9405 3.75665 12.9405C3.93277 12.9405 4.10174 12.8708 4.22665 12.7466L4.69998 12.2733C4.8092 12.1458 4.86627 11.9817 4.85979 11.8139C4.85331 11.6461 4.78375 11.487 4.66502 11.3683C4.54629 11.2495 4.38713 11.18 4.21935 11.1735C4.05156 11.167 3.88751 11.2241 3.75998 11.3333ZM7.99998 3.3333C8.17679 3.3333 8.34636 3.26306 8.47138 3.13804C8.59641 3.01301 8.66665 2.84344 8.66665 2.66663V1.99996C8.66665 1.82315 8.59641 1.65358 8.47138 1.52856C8.34636 1.40354 8.17679 1.3333 7.99998 1.3333C7.82317 1.3333 7.6536 1.40354 7.52857 1.52856C7.40355 1.65358 7.33331 1.82315 7.33331 1.99996V2.66663C7.33331 2.84344 7.40355 3.01301 7.52857 3.13804C7.6536 3.26306 7.82317 3.3333 7.99998 3.3333ZM11.7733 4.8933C11.9482 4.89256 12.1158 4.82313 12.24 4.69996L12.7133 4.22663C12.7831 4.16687 12.8398 4.09332 12.8798 4.01061C12.9198 3.9279 12.9423 3.83781 12.9458 3.746C12.9494 3.65419 12.9339 3.56263 12.9004 3.47708C12.8669 3.39153 12.816 3.31383 12.7511 3.24886C12.6861 3.18389 12.6084 3.13306 12.5229 3.09954C12.4373 3.06602 12.3458 3.05055 12.2539 3.0541C12.1621 3.05765 12.072 3.08013 11.9893 3.12015C11.9066 3.16016 11.8331 3.21684 11.7733 3.28663L11.3333 3.75996C11.2091 3.88487 11.1395 4.05384 11.1395 4.22996C11.1395 4.40609 11.2091 4.57506 11.3333 4.69996C11.4508 4.81687 11.6077 4.8858 11.7733 4.8933ZM3.77331 4.69996C3.89749 4.82313 4.06509 4.89256 4.23998 4.8933C4.32772 4.89381 4.41469 4.87699 4.49592 4.84381C4.57714 4.81064 4.65102 4.76175 4.71331 4.69996C4.83748 4.57506 4.90717 4.40609 4.90717 4.22996C4.90717 4.05384 4.83748 3.88487 4.71331 3.75996L4.23998 3.28663C4.17826 3.22403 4.10481 3.17421 4.02383 3.14C3.94286 3.10578 3.85593 3.08786 3.76803 3.08724C3.68012 3.08662 3.59295 3.10332 3.5115 3.13639C3.43005 3.16946 3.35591 3.21824 3.29331 3.27996C3.23072 3.34169 3.18089 3.41513 3.14668 3.49611C3.11246 3.57709 3.09454 3.66401 3.09392 3.75192C3.09267 3.92945 3.16199 4.10021 3.28665 4.22663L3.77331 4.69996ZM14 7.3333H13.3333C13.1565 7.3333 12.9869 7.40354 12.8619 7.52856C12.7369 7.65358 12.6666 7.82315 12.6666 7.99996C12.6666 8.17677 12.7369 8.34634 12.8619 8.47137C12.9869 8.59639 13.1565 8.66663 13.3333 8.66663H14C14.1768 8.66663 14.3464 8.59639 14.4714 8.47137C14.5964 8.34634 14.6666 8.17677 14.6666 7.99996C14.6666 7.82315 14.5964 7.65358 14.4714 7.52856C14.3464 7.40354 14.1768 7.3333 14 7.3333ZM12.24 11.3333C12.1133 11.2628 11.9672 11.2356 11.8236 11.2557C11.6801 11.2757 11.547 11.342 11.4445 11.4445C11.342 11.547 11.2757 11.6801 11.2557 11.8236C11.2356 11.9671 11.2629 12.1133 11.3333 12.24L11.8066 12.7133C11.9316 12.8375 12.1005 12.9072 12.2766 12.9072C12.4528 12.9072 12.6217 12.8375 12.7466 12.7133C12.8708 12.5884 12.9405 12.4194 12.9405 12.2433C12.9405 12.0672 12.8708 11.8982 12.7466 11.7733L12.24 11.3333ZM7.99998 4.3333C7.27478 4.3333 6.56587 4.54834 5.96289 4.95124C5.35991 5.35414 4.88994 5.9268 4.61242 6.59679C4.3349 7.26679 4.26229 8.00403 4.40377 8.7153C4.54525 9.42656 4.89446 10.0799 5.40725 10.5927C5.92005 11.1055 6.57338 11.4547 7.28465 11.5962C7.99591 11.7377 8.73316 11.665 9.40315 11.3875C10.0731 11.11 10.6458 10.64 11.0487 10.0371C11.4516 9.43407 11.6666 8.72516 11.6666 7.99996C11.6649 7.02804 11.278 6.09644 10.5908 5.40919C9.90351 4.72193 8.9719 4.33506 7.99998 4.3333ZM7.99998 10.3333C7.53849 10.3333 7.08736 10.1965 6.70365 9.94006C6.31993 9.68367 6.02086 9.31925 5.84426 8.89289C5.66766 8.46653 5.62145 7.99738 5.71148 7.54475C5.80151 7.09213 6.02374 6.67637 6.35006 6.35005C6.67639 6.02373 7.09215 5.8015 7.54477 5.71146C7.99739 5.62143 8.46655 5.66764 8.89291 5.84424C9.31927 6.02085 9.68368 6.31992 9.94007 6.70363C10.1965 7.08735 10.3333 7.53847 10.3333 7.99996C10.3333 8.6188 10.0875 9.2123 9.64989 9.64988C9.21231 10.0875 8.61882 10.3333 7.99998 10.3333ZM7.99998 12.6666C7.82317 12.6666 7.6536 12.7369 7.52857 12.8619C7.40355 12.9869 7.33331 13.1565 7.33331 13.3333V14C7.33331 14.1768 7.40355 14.3463 7.52857 14.4714C7.6536 14.5964 7.82317 14.6666 7.99998 14.6666C8.17679 14.6666 8.34636 14.5964 8.47138 14.4714C8.59641 14.3463 8.66665 14.1768 8.66665 14V13.3333C8.66665 13.1565 8.59641 12.9869 8.47138 12.8619C8.34636 12.7369 8.17679 12.6666 7.99998 12.6666Z" fill="#EBEBEB"/>
</svg>
