<svg id="theme-dark" width="16" height="16" viewBox="0 0 16 16" fill="none" xmlns="http://www.w3.org/2000/svg">
<path d="M14.4268 8.66641C14.3305 8.58687 14.2139 8.53595 14.0901 8.51945C13.9664 8.50294 13.8405 8.52153 13.7268 8.57308C13.0218 8.89567 12.2553 9.0617 11.4801 9.05975C10.046 9.05801 8.67074 8.48937 7.65418 7.47781C6.63763 6.46625 6.06222 5.09382 6.05342 3.65974C6.05646 3.2103 6.1124 2.76278 6.22009 2.32641C6.24294 2.2101 6.23437 2.08981 6.19526 1.97791C6.15615 1.86602 6.08792 1.76658 5.99759 1.68983C5.90726 1.61309 5.7981 1.56181 5.68136 1.54129C5.56461 1.52077 5.44451 1.53174 5.33342 1.57308C4.28831 2.04302 3.3798 2.77092 2.69326 3.6884C2.00672 4.60588 1.56468 5.68283 1.40866 6.81807C1.25264 7.95331 1.38776 9.10958 1.80134 10.1783C2.21491 11.2469 2.89336 12.1929 3.77296 12.9274C4.65255 13.6618 5.70441 14.1607 6.82972 14.377C7.95503 14.5933 9.11686 14.5199 10.2061 14.1639C11.2953 13.8079 12.2761 13.1808 13.0564 12.3416C13.8366 11.5024 14.3908 10.4786 14.6668 9.36641C14.7004 9.23907 14.6955 9.10463 14.6528 8.98005C14.6101 8.85548 14.5314 8.74634 14.4268 8.66641ZM8.09342 13.1264C6.9746 13.1185 5.88556 12.765 4.97542 12.1142C4.06528 11.4635 3.37853 10.5473 3.00921 9.49116C2.63989 8.43502 2.60605 7.29053 2.91232 6.21441C3.21859 5.13829 3.84999 4.18314 4.72009 3.47974V3.65974C4.72186 5.45207 5.43463 7.17047 6.702 8.43784C7.96936 9.7052 9.68777 10.418 11.4801 10.4197C11.9507 10.4215 12.4201 10.3723 12.8801 10.2731C12.42 11.1434 11.7311 11.8716 10.8875 12.3792C10.044 12.8867 9.07788 13.1543 8.09342 13.1531V13.1264Z" fill="#141414"/>
</svg>
